<svg xmlns="http://www.w3.org/2000/svg" viewBox="0 0 640 220" width="640" height="220">
  <defs>
    <style>
      text { font-family: -apple-system, BlinkMacSystemFont, 'Segoe UI', sans-serif; }
    </style>
  </defs>

  <rect width="640" height="220" fill="#0f172a" rx="8"/>

  <text x="320" y="28" fill="#e2e8f0" font-size="14px" font-weight="bold" text-anchor="middle">AntennaPod en-US → ja + ko · DeepSeek Chat</text>
  <text x="320" y="44" fill="#64748b" font-size="10px" text-anchor="middle">869 segments · 29 batches (30/batch) · 0 QA issues · BUILD SUCCESSFUL</text>

  <!-- Pipeline boxes -->
  <rect x="15" y="58" width="72" height="28" rx="4" fill="#1e293b" stroke="#475569" stroke-width="1"/>
  <text x="51" y="76" fill="#94a3b8" font-size="9px" text-anchor="middle">extract</text>

  <rect x="95" y="58" width="72" height="28" rx="4" fill="#1e293b" stroke="#475569" stroke-width="1"/>
  <text x="131" y="76" fill="#94a3b8" font-size="9px" text-anchor="middle">batch</text>

  <rect x="175" y="58" width="72" height="28" rx="4" fill="#1e3a5f" stroke="#3b82f6" stroke-width="1"/>
  <text x="211" y="76" fill="#60a5fa" font-size="9px" text-anchor="middle">DeepSeek API</text>

  <rect x="255" y="58" width="72" height="28" rx="4" fill="#1e293b" stroke="#475569" stroke-width="1"/>
  <text x="291" y="76" fill="#94a3b8" font-size="9px" text-anchor="middle">collect</text>

  <rect x="335" y="58" width="72" height="28" rx="4" fill="#1e293b" stroke="#475569" stroke-width="1"/>
  <text x="371" y="76" fill="#94a3b8" font-size="9px" text-anchor="middle">stage</text>

  <rect x="415" y="58" width="72" height="28" rx="4" fill="#422006" stroke="#f59e0b" stroke-width="1"/>
  <text x="451" y="76" fill="#fbbf24" font-size="9px" text-anchor="middle">QA</text>

  <rect x="495" y="58" width="72" height="28" rx="4" fill="#14532d" stroke="#22c55e" stroke-width="1"/>
  <text x="531" y="76" fill="#4ade80" font-size="9px" text-anchor="middle">deliver</text>

  <!-- Arrows -->
  <line x1="87" y1="72" x2="93" y2="72" stroke="#475569" stroke-width="1"/>
  <line x1="167" y1="72" x2="173" y2="72" stroke="#475569" stroke-width="1"/>
  <line x1="247" y1="72" x2="253" y2="72" stroke="#475569" stroke-width="1"/>
  <line x1="327" y1="72" x2="333" y2="72" stroke="#475569" stroke-width="1"/>
  <line x1="407" y1="72" x2="413" y2="72" stroke="#475569" stroke-width="1"/>
  <line x1="487" y1="72" x2="493" y2="72" stroke="#475569" stroke-width="1"/>

  <!-- Results table -->
  <text x="30" y="108" fill="#94a3b8" font-size="10px">Japanese (ja)</text>
  <rect x="130" y="96" width="90" height="18" rx="3" fill="#14532d" stroke="#22c55e" stroke-width="0.5"/>
  <text x="175" y="109" fill="#4ade80" font-size="9px" text-anchor="middle">0 blocking</text>
  <rect x="228" y="96" width="90" height="18" rx="3" fill="#14532d" stroke="#22c55e" stroke-width="0.5"/>
  <text x="273" y="109" fill="#4ade80" font-size="9px" text-anchor="middle">0 warnings</text>
  <text x="340" y="109" fill="#64748b" font-size="9px">~4 min · 869/869 translated</text>

  <text x="30" y="134" fill="#94a3b8" font-size="10px">Korean (ko)</text>
  <rect x="130" y="122" width="90" height="18" rx="3" fill="#14532d" stroke="#22c55e" stroke-width="0.5"/>
  <text x="175" y="135" fill="#4ade80" font-size="9px" text-anchor="middle">0 blocking</text>
  <rect x="228" y="122" width="90" height="18" rx="3" fill="#14532d" stroke="#22c55e" stroke-width="0.5"/>
  <text x="273" y="135" fill="#4ade80" font-size="9px" text-anchor="middle">0 warnings</text>
  <text x="340" y="135" fill="#64748b" font-size="9px">~4 min · 869/869 translated</text>

  <!-- Build result -->
  <rect x="15" y="155" width="610" height="28" rx="4" fill="#1e293b" stroke="#475569" stroke-width="1"/>
  <text x="320" y="173" fill="#4ade80" font-size="11px" text-anchor="middle">✅ Gradle :app:assembleFreeDebug — BUILD SUCCESSFUL (both locales)</text>

  <!-- Limitations -->
  <text x="15" y="200" fill="#64748b" font-size="8px">Model: deepseek-chat · Temperature: 0.1 · This is engineering QA evidence, not translation quality assessment.</text>
  <text x="15" y="213" fill="#64748b" font-size="8px">Full report: docs/test-antennapod-deepseek.md · Pipeline: localize-anything v0.2</text>
</svg>
